<?xml version="1.0" encoding="utf-8"?>
<!-- Generator: Adobe Illustrator 24.1.0, SVG Export Plug-In . SVG Version: 6.00 Build 0)  -->
<svg version="1.1" id="Layer_1" xmlns="http://www.w3.org/2000/svg" xmlns:xlink="http://www.w3.org/1999/xlink" x="0px" y="0px"
	 viewBox="0 0 81 41" style="enable-background:new 0 0 81 41;" xml:space="preserve">
<style type="text/css">
	.st0{fill:#FF0025;}
</style>
<path class="st0" d="M29.6,9.6c-1.1,0-1.9-0.8-1.9-2.1c0-1.3,0.8-2.1,1.9-2.1c1.1,0,1.9,0.8,1.9,2.1C31.5,8.8,30.7,9.6,29.6,9.6z
	 M29.6,3.7c-2.2,0-3.9,1.6-3.9,3.8s1.6,3.8,3.9,3.8s3.9-1.6,3.9-3.8C33.4,5.3,31.8,3.7,29.6,3.7z M22.5,7.6c-0.1,0-0.1-0.1,0-0.1
	c0.4-0.1,0.7-0.4,1-0.7l2.4-3h-2.3L21,7.1V0.7h-2v10.5h2V7.8l2.3,2.7c0.4,0.5,0.8,0.7,1.5,0.7h1.4l-2.7-3.1
	C23.3,7.8,22.9,7.6,22.5,7.6z M43.1,3.7c-1.2,0-2,0.6-2.4,1.3c-0.4-0.8-1.1-1.3-2.3-1.3c-0.9,0-1.6,0.4-1.9,1c0,0.1-0.1,0.1-0.1,0
	c-0.1-0.5-0.6-0.9-1.1-0.9h-0.8v7.4h2V7.5c0-1.3,0.5-2.1,1.5-2.1c0.8,0,1.2,0.5,1.2,1.4v4.5h2V7.4c0-1.3,0.5-2.1,1.4-2.1
	c0.8,0,1.2,0.5,1.2,1.4v4.5h2v-5C45.8,4.7,44.7,3.7,43.1,3.7z M17.6,1.8c0-0.6-0.5-1.1-1.1-1.1h-0.8v9.2c0,1.1,0.7,1.5,1.4,1.5
	c0.3,0,0.6-0.1,0.9-0.2c-0.3-0.4-0.4-1.1-0.4-1.6V1.8z M6.2,3c0-1.1-0.9-2-2-2H2.3C1.7,1,1.2,1.5,1.2,2.2v0.9h3v6.8
	c0,1.1,0.7,1.5,1.4,1.5c0.3,0,0.7-0.1,0.9-0.2c-0.3-0.4-0.4-1.1-0.4-1.6L6.2,3L6.2,3z M9.1,2.6V1H5.5c-0.1,0-0.1,0.1,0,0.1
	C6,1.4,6.4,2,6.5,2.6c0,0.3,0.2,0.4,0.5,0.4h1.6C8.9,3.1,9.1,2.9,9.1,2.6z M50.1,6.7c-1-0.3-1.3-0.5-1.3-0.8c0-0.4,0.4-0.7,1.1-0.7
	c0.8,0,1.7,0.3,2.2,0.7V4.3c-0.6-0.4-1.4-0.6-2.3-0.6c-1.8,0-2.9,1-2.9,2.3c0,1.3,1.1,1.9,2.3,2.2c1,0.3,1.5,0.5,1.5,0.9
	c0,0.5-0.4,0.8-1.2,0.8c-1.1,0-1.9-0.4-2.5-1v1.7c0.7,0.5,1.6,0.7,2.6,0.7c1.9,0,3-0.9,3-2.3C52.6,7.5,51.3,7,50.1,6.7z M9.4,6.7
	c0.2-0.9,0.8-1.6,1.7-1.6c0.8,0,1.4,0.5,1.5,1.6H9.4z M11.1,3.7c-2,0-3.7,1.5-3.7,3.9c0,2.2,1.5,3.8,4,3.8c0.9,0,1.8-0.3,2.6-0.7
	V8.9c-0.7,0.5-1.5,0.8-2.4,0.8c-1.2,0-2.1-0.5-2.3-1.7h5.2c0-0.2,0.1-0.5,0.1-0.7C14.5,5,13,3.7,11.1,3.7z M55.2,6.7
	c0.2-0.9,0.8-1.6,1.7-1.6c0.8,0,1.4,0.5,1.5,1.6H55.2z M56.9,3.7c-2,0-3.7,1.5-3.7,3.9c0,2.2,1.5,3.8,4,3.8c0.9,0,1.8-0.3,2.6-0.7
	V8.9c-0.7,0.5-1.5,0.8-2.4,0.8c-1.2,0-2.1-0.5-2.3-1.7h5.2c0-0.2,0.1-0.5,0.1-0.7C60.3,5,58.8,3.7,56.9,3.7z M63.4,9.5V1.8
	c0-0.6-0.5-1.1-1.1-1.1h-0.8v9.2c0,1.1,0.7,1.5,1.4,1.5c0.3,0,0.6-0.1,0.9-0.2C63.4,10.7,63.4,10.1,63.4,9.5z"/>
<path class="st0" d="M12,16.1c-6.8,0-10.9,4.7-10.9,12.3c0,1.3,0.1,2.6,0.4,3.7C1.6,32.6,2,33.7,3.1,34c1.5,0.4,4.2-1.3,4.2-1.3
	c-0.4-1.2-0.7-2.6-0.7-4.3c0-5,1.9-7.7,5.4-7.7c3.6,0,5.5,2.8,5.5,7.7c0,4.9-2,7.7-5.5,7.7c-1.9,0-3.3-0.8-4.2-2.3l-3.3,4
	c1.9,1.9,4.5,2.9,7.7,2.9C18.8,40.7,23,36,23,28.4C22.9,20.8,18.8,16.1,12,16.1z M25.7,40.4V23.2c0.5-0.3,1.4-0.4,2.2-0.4
	c1.8,0,3,1.1,3,2.9v0.4c0.9-2,2.7-3.3,4.7-3.3c1.7,0,2.8,0.9,2.8,2.5c0,0.9-0.4,1.8-1.1,2.6c-0.6-0.5-1.5-0.8-2.5-0.8
	c-2.4,0-3.8,1.5-3.8,4v9.2H25.7z M57.4,31.7c0,5.4-2.5,9-7,9c-2.3,0-4.1-0.9-5.1-2.8c-0.2,1.8-1.2,2.6-3,2.6c-0.8,0-1.6-0.2-2.2-0.4
	V15.9c0.5-0.3,1.4-0.4,2.2-0.4c2,0,3.1,1.1,3.1,3V26c0.9-2.4,2.8-3.4,5.1-3.4C54.8,22.6,57.4,26.2,57.4,31.7z M52.1,31.7
	c0-3.3-1.4-5.1-3.5-5.1c-1.9,0-3.3,1.5-3.3,3.3v3.9c0,1.6,1.5,3,3.2,3C50.7,36.7,52.1,34.9,52.1,31.7z M60.2,17.8l2.3-2.5l2.5,2
	c0.3,0.3,0.4,0.6,0.4,0.8c0,0.3-0.2,0.6-0.4,0.9l-2.3,2.5l-2.5-2c-0.3-0.3-0.4-0.6-0.4-0.8C59.8,18.3,60,18.1,60.2,17.8z M60,22.9
	h5.2V40c-0.5,0.3-1.4,0.4-2.2,0.4c-2,0-3.1-1.1-3.1-3V22.9z M69.8,22.9v-4.5c0.5-0.3,1.4-0.4,2.2-0.4c2,0,3,1.1,3,3v1.9h4.4v3.8H75
	V35c0,1.1,0.6,1.6,1.6,1.6c0.8,0,1.7-0.4,2.2-0.9c0.3,0.6,1,1.2,1,2.2c0,1.8-1.6,2.8-4.8,2.8c-3.3,0-5.2-1.9-5.2-5.3v-8.6
	c-2.3,0-3-0.9-3-3.8H69.8z"/>
</svg>
